<svg width="50" height="50" viewBox="0 0 50 50" fill="none" xmlns="http://www.w3.org/2000/svg">
<path d="M0 10C0 4.47715 4.47715 0 10 0H40C45.5229 0 50 4.47715 50 10V40C50 45.5228 45.5228 50 40 50H10C4.47715 50 0 45.5228 0 40V10Z" fill="#507DFA"/>
<path d="M8.72266 35H11.4766V23.6797C11.4766 23.4219 11.4688 23.1328 11.4531 22.8125C11.4453 22.4844 11.4297 22.207 11.4062 21.9805H11.5C11.5312 22.207 11.5898 22.4844 11.6758 22.8125C11.7617 23.1328 11.8516 23.4219 11.9453 23.6797L16.0938 35H18.7773L22.9258 23.6797C23.0195 23.4219 23.1055 23.1406 23.1836 22.8359C23.2695 22.5234 23.3359 22.2383 23.3828 21.9805H23.4648C23.4414 22.2305 23.4219 22.5117 23.4062 22.8242C23.3984 23.1367 23.3945 23.4219 23.3945 23.6797V35H26.5117V17.9375H22.3398L18.0625 29.4688C17.9766 29.7266 17.8945 29.9805 17.8164 30.2305C17.7461 30.4727 17.6836 30.7305 17.6289 31.0039H17.5469C17.5 30.7305 17.4375 30.4727 17.3594 30.2305C17.2891 29.9805 17.207 29.7266 17.1133 29.4688L12.8477 17.9375H8.72266V35ZM29.957 35H33.1094V28.5312H35.957C37.8008 28.5312 39.2422 28.0508 40.2812 27.0898C41.3281 26.1211 41.8516 24.8203 41.8516 23.1875C41.8516 21.5625 41.3359 20.2812 40.3047 19.3438C39.2734 18.4062 37.8281 17.9375 35.9688 17.9375H29.957V35ZM33.1094 26.2109V20.3281H35.7461C36.832 20.3281 37.5938 20.5938 38.0312 21.125C38.4688 21.6562 38.6875 22.3594 38.6875 23.2344C38.6875 24.1094 38.4688 24.8242 38.0312 25.3789C37.5938 25.9336 36.832 26.2109 35.7461 26.2109H33.1094ZM39.1445 35H42.6602L38.4062 26.8555L35.2188 27.1953L39.1445 35Z" fill="#FDFDFD"/>
</svg>
