<svg width="80" height="91" viewBox="0 0 80 91" fill="none" xmlns="http://www.w3.org/2000/svg">
<path fill-rule="evenodd" clip-rule="evenodd" d="M37.52 0.660097C38.2753 0.228644 39.1302 0.00170898 40 0.00170898C40.8699 0.00170898 41.7247 0.228644 42.48 0.660097L51.23 5.6601C51.8164 5.97702 52.3336 6.40799 52.751 6.92768C53.1684 7.44736 53.4777 8.04527 53.6607 8.68623C53.8437 9.32719 53.8966 9.99826 53.8165 10.66C53.7363 11.3217 53.5247 11.9608 53.194 12.5395C52.8633 13.1182 52.4202 13.625 51.8908 14.03C51.3613 14.435 50.7563 14.7301 50.1112 14.8978C49.4661 15.0656 48.7939 15.1027 48.1343 15.0069C47.4746 14.9111 46.8408 14.6844 46.27 14.3401L40 10.7601L33.73 14.3401C33.1593 14.6844 32.5254 14.9111 31.8658 15.0069C31.2061 15.1027 30.534 15.0656 29.8889 14.8978C29.2438 14.7301 28.6387 14.435 28.1093 14.03C27.5799 13.625 27.1368 13.1182 26.8061 12.5395C26.4754 11.9608 26.2637 11.3217 26.1836 10.66C26.1034 9.99826 26.1564 9.32719 26.3394 8.68623C26.5224 8.04527 26.8317 7.44736 27.2491 6.92768C27.6665 6.40799 28.1836 5.97702 28.77 5.6601L37.52 0.660097ZM18.09 17.5201C18.7474 18.6712 18.9207 20.0363 18.5719 21.3152C18.2231 22.5941 17.3808 23.6821 16.23 24.3401L15.08 25.0001L16.23 25.6601C16.8164 25.977 17.3335 26.408 17.751 26.9277C18.1684 27.4474 18.4777 28.0453 18.6607 28.6862C18.8437 29.3272 18.8966 29.9983 18.8165 30.66C18.7363 31.3217 18.5247 31.9608 18.194 32.5395C17.8633 33.1182 17.4202 33.625 16.8908 34.03C16.3613 34.435 15.7563 34.7301 15.1112 34.8979C14.4661 35.0656 13.7939 35.1027 13.1343 35.0069C12.4746 34.9111 11.8408 34.6844 11.27 34.3401L10 33.6151V35.0001C10 36.3262 9.47324 37.5979 8.53556 38.5356C7.59788 39.4733 6.32611 40.0001 5.00002 40.0001C3.67394 40.0001 2.40217 39.4733 1.46449 38.5356C0.526808 37.5979 2.41772e-05 36.3262 2.41772e-05 35.0001V25.0001C-0.00277422 24.1019 0.237402 23.2197 0.695115 22.4468C1.15283 21.674 1.81103 21.0394 2.60002 20.6101L11.27 15.6601C12.4212 15.0027 13.7862 14.8294 15.0651 15.1782C16.344 15.527 17.432 16.3693 18.09 17.5201ZM61.91 17.5201C62.568 16.3693 63.6561 15.527 64.935 15.1782C66.2139 14.8294 67.5789 15.0027 68.73 15.6601L77.395 20.6101C78.1828 21.0412 78.8403 21.6761 79.2986 22.4484C79.7569 23.2208 79.9991 24.102 80 25.0001V35.0001C80 36.3262 79.4733 37.5979 78.5356 38.5356C77.5979 39.4733 76.3261 40.0001 75 40.0001C73.674 40.0001 72.4022 39.4733 71.4645 38.5356C70.5268 37.5979 70 36.3262 70 35.0001V33.6151L68.73 34.3401C68.1593 34.6844 67.5254 34.9111 66.8658 35.0069C66.2061 35.1027 65.534 35.0656 64.8889 34.8979C64.2438 34.7301 63.6387 34.435 63.1093 34.03C62.5799 33.625 62.1368 33.1182 61.8061 32.5395C61.4754 31.9608 61.2637 31.3217 61.1836 30.66C61.1034 29.9983 61.1564 29.3272 61.3394 28.6862C61.5224 28.0453 61.8317 27.4474 62.2491 26.9277C62.6665 26.408 63.1836 25.977 63.77 25.6601L64.92 25.0001L63.77 24.3401C62.6193 23.6821 61.7769 22.5941 61.4281 21.3152C61.0793 20.0363 61.2527 18.6712 61.91 17.5201ZM26.91 37.5201C27.568 36.3693 28.6561 35.527 29.935 35.1782C31.2138 34.8294 32.5789 35.0027 33.73 35.6601L40 39.2401L46.27 35.6601C46.8408 35.3158 47.4746 35.0891 48.1343 34.9933C48.7939 34.8975 49.4661 34.9346 50.1112 35.1023C50.7563 35.2701 51.3613 35.5652 51.8908 35.9702C52.4202 36.3752 52.8633 36.882 53.194 37.4607C53.5247 38.0394 53.7363 38.6785 53.8165 39.3402C53.8966 40.0019 53.8437 40.673 53.6607 41.314C53.4777 41.9549 53.1684 42.5528 52.751 43.0725C52.3336 43.5922 51.8164 44.0232 51.23 44.3401L45 47.9001V55.0001C45 56.3262 44.4732 57.5979 43.5356 58.5356C42.5979 59.4733 41.3261 60.0001 40 60.0001C38.6739 60.0001 37.4022 59.4733 36.4645 58.5356C35.5268 57.5979 35 56.3262 35 55.0001V47.9001L28.77 44.3401C27.6193 43.6821 26.7769 42.5941 26.4281 41.3152C26.0793 40.0363 26.2527 38.6712 26.91 37.5201ZM5.00002 50.0001C6.32611 50.0001 7.59788 50.5269 8.53556 51.4646C9.47324 52.4022 10 53.674 10 55.0001V62.1001L16.23 65.6601C16.8164 65.977 17.3335 66.408 17.751 66.9277C18.1684 67.4474 18.4777 68.0453 18.6607 68.6862C18.8437 69.3272 18.8966 69.9983 18.8165 70.66C18.7363 71.3217 18.5247 71.9608 18.194 72.5395C17.8633 73.1182 17.4202 73.625 16.8908 74.03C16.3613 74.435 15.7563 74.7301 15.1112 74.8979C14.4661 75.0656 13.7939 75.1027 13.1343 75.0069C12.4746 74.9111 11.8408 74.6844 11.27 74.3401L2.52002 69.3401C1.75475 68.903 1.11862 68.2713 0.676079 67.5092C0.233537 66.747 0.000308448 65.8814 2.41772e-05 65.0001V55.0001C2.41772e-05 53.674 0.526808 52.4022 1.46449 51.4646C2.40217 50.5269 3.67394 50.0001 5.00002 50.0001ZM75 50.0001C76.3261 50.0001 77.5979 50.5269 78.5356 51.4646C79.4733 52.4022 80 53.674 80 55.0001V65.0001C79.9997 65.8814 79.7665 66.747 79.324 67.5092C78.8814 68.2713 78.2453 68.903 77.48 69.3401L68.73 74.3401C68.1593 74.6844 67.5254 74.9111 66.8658 75.0069C66.2061 75.1027 65.534 75.0656 64.8889 74.8979C64.2438 74.7301 63.6387 74.435 63.1093 74.03C62.5799 73.625 62.1368 73.1182 61.8061 72.5395C61.4754 71.9608 61.2637 71.3217 61.1836 70.66C61.1034 69.9983 61.1564 69.3272 61.3394 68.6862C61.5224 68.0453 61.8317 67.4474 62.2491 66.9277C62.6665 66.408 63.1836 65.977 63.77 65.6601L70 62.1001V55.0001C70 53.674 70.5268 52.4022 71.4645 51.4646C72.4022 50.5269 73.674 50.0001 75 50.0001ZM26.91 77.5201C27.568 76.3693 28.6561 75.527 29.935 75.1782C31.2138 74.8294 32.5789 75.0027 33.73 75.6601L35 76.3851V75.0001C35 73.674 35.5268 72.4022 36.4645 71.4646C37.4022 70.5269 38.6739 70.0001 40 70.0001C41.3261 70.0001 42.5979 70.5269 43.5356 71.4646C44.4732 72.4022 45 73.674 45 75.0001V76.3851L46.27 75.6601C46.8408 75.3158 47.4746 75.0891 48.1343 74.9933C48.7939 74.8975 49.4661 74.9346 50.1112 75.1023C50.7563 75.2701 51.3613 75.5652 51.8908 75.9702C52.4202 76.3752 52.8633 76.882 53.194 77.4607C53.5247 78.0394 53.7363 78.6785 53.8165 79.3402C53.8966 80.0019 53.8437 80.673 53.6607 81.314C53.4777 81.9549 53.1684 82.5528 52.751 83.0725C52.3336 83.5922 51.8164 84.0232 51.23 84.3401L42.555 89.3001C41.7829 89.7622 40.8999 90.0063 40 90.0063C39.1002 90.0063 38.2172 89.7622 37.445 89.3001L28.77 84.3401C27.6193 83.6821 26.7769 82.5941 26.4281 81.3152C26.0793 80.0363 26.2527 78.6712 26.91 77.5201Z" fill="#192F6D"/>
</svg>
