<svg width="100" height="100" viewBox="0 0 100 100" fill="none" xmlns="http://www.w3.org/2000/svg">
<path d="M61.0333 60.0958L61.0458 60.0792C60.6606 61.1901 59.9344 62.1511 58.9708 62.825C57.85 63.6125 56.275 64.2333 54.0208 64.3417L45.7292 64.3583V52.15C46.9292 52.1833 52.25 52.0958 54.5583 52.2125C57.5667 52.3583 59.4375 53.55 60.4333 54.9958C61.525 56.4583 61.6542 58.4125 61.0333 60.0958ZM52.1625 46.5083C54.2583 46.4083 55.7125 45.8333 56.75 45.1083C57.6417 44.5 58.3125 43.5792 58.6667 42.5625C59.225 41 59.1125 39.1875 58.1 37.8333C57.1708 36.5042 55.4417 35.4 52.6583 35.2667C50.5958 35.1583 46.7708 35.2542 45.725 35.225V46.5125C45.8292 46.5292 52.1375 46.5083 52.1625 46.5083ZM100 50C100 77.6125 77.6125 100 50 100C22.3875 100 0 77.6125 0 50C0 22.3875 22.3875 0 50 0C77.6125 0 100 22.3875 100 50ZM72.2917 58.925C72.3833 52.7708 67.125 49.2083 64.3417 48.2083C67.3208 46.1625 69.3667 43.8625 69.3667 39.5208C69.3667 32.625 62.5083 29.3958 58.3375 28.9833C57.9958 28.9458 57.0458 28.9292 57.0458 28.9292V22.3375H50.2417L50.2583 28.9333H45.7083V22.3625H38.7917V28.9C37.575 28.9292 30.2542 28.925 30.2542 28.925V34.7625H32.6333C35.1375 34.8292 36.0583 36.2708 35.9583 37.5833V62.7542C35.9428 63.1672 35.7773 63.5605 35.4927 63.8604C35.2082 64.1602 34.8242 64.3461 34.4125 64.3833C33.375 64.4292 31.825 64.3833 31.825 64.3833L30.4917 71H38.8083V77.6667H45.7292V71.0375H50.275V77.6792H57.0417V71.0625C64.9542 71.2708 72.2208 66.6 72.2917 58.925Z" fill="#192F6D"/>
</svg>
