<svg width="100" height="100" viewBox="0 0 100 100" fill="none" xmlns="http://www.w3.org/2000/svg">
<path fill-rule="evenodd" clip-rule="evenodd" d="M61.58 15.255C62.2032 15.4623 62.7794 15.7905 63.2758 16.2206C63.7722 16.6507 64.1789 17.1744 64.4728 17.7618C64.7668 18.3491 64.9421 18.9887 64.9888 19.6438C65.0355 20.2989 64.9526 20.9569 64.745 21.58L44.745 81.58C44.3259 82.8384 43.4241 83.8789 42.238 84.4724C41.0518 85.066 39.6784 85.164 38.42 84.745C37.1615 84.3259 36.1211 83.4241 35.5275 82.238C34.934 81.0518 34.8359 79.6784 35.255 78.42L55.255 18.42C55.4623 17.7968 55.7904 17.2205 56.2206 16.7242C56.6507 16.2278 57.1744 15.821 57.7618 15.5271C58.3491 15.2332 58.9887 15.0579 59.6438 15.0112C60.2989 14.9645 60.9569 15.0473 61.58 15.255ZM28.535 31.465C29.4723 32.4026 29.9989 33.6742 29.9989 35C29.9989 36.3258 29.4723 37.5973 28.535 38.535L17.07 50L28.535 61.465C29.0125 61.9262 29.3934 62.4779 29.6555 63.088C29.9175 63.698 30.0555 64.3541 30.0612 65.018C30.067 65.6819 29.9405 66.3403 29.6891 66.9548C29.4377 67.5692 29.0664 68.1275 28.5969 68.597C28.1275 69.0664 27.5692 69.4377 26.9547 69.6891C26.3403 69.9405 25.6819 70.067 25.018 70.0612C24.3541 70.0555 23.698 69.9175 23.0879 69.6555C22.4779 69.3934 21.9262 69.0125 21.465 68.535L6.46497 53.535C5.52761 52.5973 5.00104 51.3258 5.00104 50C5.00104 48.6742 5.52761 47.4026 6.46497 46.465L21.465 31.465C22.4026 30.5276 23.6741 30.001 25 30.001C26.3258 30.001 27.5973 30.5276 28.535 31.465ZM71.465 31.465C72.4026 30.5276 73.6741 30.001 75 30.001C76.3258 30.001 77.5973 30.5276 78.535 31.465L93.535 46.465C94.4723 47.4026 94.9989 48.6742 94.9989 50C94.9989 51.3258 94.4723 52.5973 93.535 53.535L78.535 68.535C78.0737 69.0125 77.522 69.3934 76.912 69.6555C76.302 69.9175 75.6459 70.0555 74.982 70.0612C74.3181 70.067 73.6597 69.9405 73.0452 69.6891C72.4307 69.4377 71.8725 69.0664 71.403 68.597C70.9335 68.1275 70.5623 67.5692 70.3109 66.9548C70.0595 66.3403 69.9329 65.6819 69.9387 65.018C69.9445 64.3541 70.0824 63.698 70.3445 63.088C70.6065 62.4779 70.9874 61.9262 71.465 61.465L82.93 50L71.465 38.535C70.5276 37.5973 70.001 36.3258 70.001 35C70.001 33.6742 70.5276 32.4026 71.465 31.465Z" fill="#192F6D"/>
</svg>
