<svg width="100" height="80" viewBox="0 0 100 80" fill="none" xmlns="http://www.w3.org/2000/svg">
<path d="M92.5 0H7.5C5.51088 0 3.60322 0.790176 2.1967 2.1967C0.790176 3.60322 0 5.51088 0 7.5L0 57.5C0 59.4891 0.790176 61.3968 2.1967 62.8033C3.60322 64.2098 5.51088 65 7.5 65H45V70H17.5C16.837 70 16.2011 70.2634 15.7322 70.7322C15.2634 71.2011 15 71.837 15 72.5V77.5C15 78.163 15.2634 78.7989 15.7322 79.2678C16.2011 79.7366 16.837 80 17.5 80H82.5C83.163 80 83.7989 79.7366 84.2678 79.2678C84.7366 78.7989 85 78.163 85 77.5V72.5C85 71.837 84.7366 71.2011 84.2678 70.7322C83.7989 70.2634 83.163 70 82.5 70H55V65H92.5C94.4891 65 96.3968 64.2098 97.8033 62.8033C99.2098 61.3968 100 59.4891 100 57.5V7.5C100 5.51088 99.2098 3.60322 97.8033 2.1967C96.3968 0.790176 94.4891 0 92.5 0V0ZM90 55H10V10H90V55Z" fill="#192F6D"/>
</svg>
