<svg width="100" height="100" viewBox="0 0 100 100" fill="none" xmlns="http://www.w3.org/2000/svg">
<path fill-rule="evenodd" clip-rule="evenodd" d="M20 20C20 17.3478 21.0536 14.8043 22.9289 12.9289C24.8043 11.0536 27.3478 10 30 10H52.93C55.582 10.0006 58.1251 11.0545 60 12.93L77.07 30C78.9455 31.8749 79.9994 34.4181 80 37.07V80C80 82.6522 78.9464 85.1957 77.0711 87.0711C75.1957 88.9464 72.6522 90 70 90H30C27.3478 90 24.8043 88.9464 22.9289 87.0711C21.0536 85.1957 20 82.6522 20 80V20ZM30 50C30 48.6739 30.5268 47.4021 31.4645 46.4645C32.4022 45.5268 33.6739 45 35 45H65C66.3261 45 67.5979 45.5268 68.5355 46.4645C69.4732 47.4021 70 48.6739 70 50C70 51.3261 69.4732 52.5979 68.5355 53.5355C67.5979 54.4732 66.3261 55 65 55H35C33.6739 55 32.4022 54.4732 31.4645 53.5355C30.5268 52.5979 30 51.3261 30 50ZM35 65C33.6739 65 32.4022 65.5268 31.4645 66.4645C30.5268 67.4021 30 68.6739 30 70C30 71.3261 30.5268 72.5979 31.4645 73.5355C32.4022 74.4732 33.6739 75 35 75H65C66.3261 75 67.5979 74.4732 68.5355 73.5355C69.4732 72.5979 70 71.3261 70 70C70 68.6739 69.4732 67.4021 68.5355 66.4645C67.5979 65.5268 66.3261 65 65 65H35Z" fill="#192F6D"/>
</svg>
