<svg width="100" height="100" viewBox="0 0 100 100" fill="none" xmlns="http://www.w3.org/2000/svg">
<path d="M39.8484 50.8828C40.825 51.8594 42.4078 51.8594 43.3844 50.8828L45.1516 49.1156C46.1281 48.1391 46.1281 46.5563 45.1516 45.5797L39.5703 40L45.15 34.4188C46.1266 33.4422 46.1266 31.8594 45.15 30.8828L43.3828 29.1156C42.4062 28.1391 40.8234 28.1391 39.8469 29.1156L30.7312 38.2312C29.7547 39.2078 29.7547 40.7906 30.7312 41.7672L39.8484 50.8828ZM54.85 49.1172L56.6172 50.8844C57.5938 51.8609 59.1766 51.8609 60.1531 50.8844L69.2688 41.7688C70.2453 40.7922 70.2453 39.2094 69.2688 38.2328L60.1531 29.1172C59.1766 28.1406 57.5938 28.1406 56.6172 29.1172L54.85 30.8844C53.8734 31.8609 53.8734 33.4437 54.85 34.4203L60.4297 40L54.85 45.5812C53.8734 46.5578 53.8734 48.1406 54.85 49.1172ZM97.5 75H59.6156C59.5 78.0953 57.3172 80 54.5 80H45C42.0797 80 39.8406 77.2703 39.8797 75H2.5C1.125 75 0 76.125 0 77.5V80C0 85.5 4.5 90 10 90H90C95.5 90 100 85.5 100 80V77.5C100 76.125 98.875 75 97.5 75ZM90 17.5C90 13.375 86.625 10 82.5 10H17.5C13.375 10 10 13.375 10 17.5V70H90V17.5ZM80 60H20V20H80V60Z" fill="#192F6D"/>
</svg>
