<svg width="100" height="100" viewBox="0 0 100 100" fill="none" xmlns="http://www.w3.org/2000/svg">
<path d="M52.1 0C51.4542 0 50.7875 0.0333333 50.1 0.0875C32.4917 1.475 37.1625 20.1167 36.8917 26.3292C36.575 30.8792 35.6417 34.4667 32.5167 38.9125C28.8292 43.2917 23.6542 50.3708 21.2 57.75C20.0417 61.2167 19.4917 64.7667 20.0042 68.1208C19.8141 68.2746 19.658 68.4661 19.5458 68.6833C18.4625 69.8 17.6708 71.1833 16.7833 72.1792C15.9542 73.0083 14.7625 73.2917 13.4625 73.8458C12.1583 74.4125 10.7208 74.9667 9.8625 76.6792C9.4875 77.4667 9.29584 78.3208 9.3125 79.1875C9.3125 80.0167 9.425 80.8542 9.54167 81.4208C9.78334 83.0833 10.025 84.4542 9.70834 85.4625C8.67084 88.2958 8.54167 90.2333 9.26667 91.6458C9.99167 93.0375 11.4958 93.6042 13.1833 94.15C16.5583 94.9833 21.1417 94.7125 24.7417 96.65C28.6 98.5917 32.5167 99.4417 35.6417 98.6083C37.8333 98.125 39.6833 96.675 40.675 94.6667C43.1208 94.6542 45.8 93.5458 50.0917 93.275C53.0042 93.0333 56.65 94.3875 60.8292 94.1083C60.9333 94.6667 61.0917 94.9333 61.3042 95.4958L61.3167 95.5083C62.9458 98.75 65.9542 100.225 69.1667 99.9708C72.3792 99.7208 75.8 97.7375 78.5708 94.5292C81.2 91.3417 85.5833 90.0125 88.4792 88.2667C89.9292 87.4375 91.1 86.3125 91.1833 84.7125C91.2792 83.0458 90.35 81.3333 88.2083 78.9792V78.575L88.1958 78.5625C87.4875 77.7292 87.1542 76.3333 86.7875 74.7042C86.4333 73.0333 86.0292 71.4292 84.7375 70.3458H84.725C84.4792 70.1208 84.2125 70.0667 83.9417 69.7833C83.7087 69.6206 83.4339 69.5281 83.15 69.5167C84.9458 64.1917 84.25 58.8917 82.4292 54.125C80.2083 48.25 76.325 43.1333 73.3667 39.6125C70.05 35.425 66.8 31.4583 66.8667 25.5792C66.975 16.6125 67.85 0.025 52.1 0V0ZM54.3042 14.1875H54.3583C55.2458 14.1875 56.0083 14.4458 56.7917 15.0125C57.5833 15.575 58.1667 16.3958 58.6167 17.2333C59.0542 18.3125 59.275 19.1458 59.3083 20.25C59.3083 20.1667 59.3333 20.0833 59.3333 20V20.4375C59.3242 20.4091 59.3186 20.3797 59.3167 20.35L59.3 20.25C59.2916 21.2626 59.079 22.2631 58.675 23.1917C58.4804 23.7141 58.178 24.1897 57.7875 24.5875C57.6694 24.5208 57.5469 24.4624 57.4208 24.4125C56.9875 24.225 56.5958 24.1458 56.2375 23.8583C55.9406 23.74 55.6338 23.648 55.3208 23.5833C55.5292 23.3333 55.9292 23.0292 56.0833 22.7583C56.3042 22.225 56.425 21.6583 56.45 21.0833V21C56.4594 20.4341 56.3735 19.8707 56.1958 19.3333C56.0083 18.775 55.775 18.5 55.4333 17.9458C55.0833 17.6708 54.7375 17.3958 54.3208 17.3958H54.2542C53.8667 17.3958 53.5208 17.5208 53.1625 17.9458C52.7668 18.3317 52.4733 18.81 52.3083 19.3375C52.087 19.8669 51.9601 20.431 51.9333 21.0042V21.0833C51.9417 21.4542 51.9667 21.8292 52.0167 22.1958C51.2125 21.9167 50.1917 21.6333 49.4875 21.3542C49.4454 21.0782 49.4204 20.7999 49.4125 20.5208V20.4375C49.3798 19.3376 49.5933 18.2443 50.0375 17.2375C50.3792 16.3208 51.0042 15.5458 51.8292 15.0167C52.5414 14.4768 53.4104 14.1842 54.3042 14.1833V14.1875ZM41.9625 14.4333H42.1125C42.7042 14.4333 43.2375 14.6333 43.775 14.9958C44.3833 15.5333 44.875 16.1958 45.2083 16.9333C45.5833 17.7625 45.7917 18.6 45.8458 19.7125V19.7292C45.875 20.2875 45.8708 20.5625 45.8375 20.8375V21.1708C45.7125 21.2 45.6042 21.2458 45.4917 21.2708C44.8583 21.5 44.35 21.8333 43.8542 22.1042C43.9042 21.7292 43.9083 21.3542 43.8667 20.9917V20.9292C43.8167 20.375 43.7 20.0958 43.525 19.5417C43.3951 19.117 43.1567 18.7336 42.8333 18.4292C42.7307 18.3358 42.6102 18.2641 42.4792 18.2182C42.3482 18.1724 42.2093 18.1535 42.0708 18.1625H41.9833C41.6875 18.1875 41.4417 18.3292 41.2083 18.7125C40.9425 19.0351 40.7697 19.424 40.7083 19.8375C40.5957 20.2866 40.5633 20.7521 40.6125 21.2125V21.275C40.6625 21.8375 40.7667 22.1083 40.9458 22.6667C41.1375 23.225 41.3542 23.5 41.6375 23.7833C41.6792 23.8208 41.7208 23.8583 41.7792 23.8833C41.4875 24.1208 41.2917 24.175 41.0458 24.45C40.8899 24.5878 40.7025 24.6852 40.5 24.7333C40.0669 24.2118 39.6833 23.651 39.3542 23.0583C38.9602 22.1827 38.7409 21.2387 38.7083 20.2792C38.6393 19.3386 38.7525 18.3935 39.0417 17.4958C39.2712 16.6772 39.6732 15.9171 40.2208 15.2667C40.7542 14.7125 41.3042 14.4333 41.9625 14.4333ZM47.6708 21.5417C49.0542 21.5417 50.725 21.8125 52.7375 23.2042C53.9583 24.0375 54.9167 24.325 57.1208 25.1542H57.1333C58.1958 25.7208 58.8208 26.2625 59.125 26.8167V26.2708C59.2745 26.5738 59.3578 26.9051 59.3693 27.2428C59.3808 27.5805 59.3202 27.9167 59.1917 28.2292C58.6792 29.5208 57.0417 30.9083 54.7625 31.7375V31.7458C53.6458 32.3083 52.675 33.1333 51.5333 33.6833C50.3833 34.2458 49.0833 34.9 47.3167 34.7958C46.682 34.8287 46.0473 34.7338 45.45 34.5167C44.9885 34.2656 44.5407 33.9902 44.1083 33.6917C43.2958 33.1292 42.5958 32.3083 41.5583 31.7542V31.7333H41.5375C39.8708 30.7083 38.9708 29.6 38.6792 28.775C38.3875 27.6583 38.6583 26.8167 39.4833 26.275C40.4167 25.7125 41.0667 25.1458 41.4958 24.875C41.9292 24.5667 42.0917 24.45 42.2292 24.3292H42.2375V24.3167C42.9417 23.475 44.0542 22.3583 45.7333 21.8125C46.3125 21.6625 46.9583 21.5417 47.675 21.5417H47.6708ZM59.3375 30.4667C60.8292 36.3708 64.3208 44.9458 66.5667 49.1042C67.7583 51.3292 70.1292 56.0167 71.1583 61.7042C71.8083 61.6833 72.5333 61.7792 73.2958 61.9708C75.9875 55.0083 71.0208 47.525 68.7583 45.4458C67.8417 44.6125 67.7917 44.05 68.2458 44.05C70.7042 46.275 73.9333 50.6 75.1042 55.5375C75.6458 57.7667 75.7708 60.1375 75.1917 62.4958C75.4708 62.6125 75.7542 62.7458 76.0458 62.775C80.3458 65 81.9333 66.6833 81.1708 69.1792V69C80.9208 68.9875 80.6708 69 80.4208 69H80.3542C80.9833 67.0542 79.5958 65.5625 75.9167 63.9C72.1042 62.2333 69.0583 62.5 68.5417 65.8375C68.5083 66.0167 68.4875 66.1125 68.4667 66.4C68.1833 66.4958 67.8875 66.6208 67.5958 66.6667C65.8042 67.7833 64.8375 69.4542 64.2917 71.6125C63.75 73.8333 63.5833 76.4292 63.4375 79.4V79.4125C63.3542 80.8042 62.7292 82.9042 62.1083 85.0375C55.8583 89.5042 47.1917 91.4458 39.825 86.4292C39.3627 85.6211 38.7999 84.8749 38.15 84.2083C37.8395 83.6912 37.4532 83.2235 37.0042 82.8208C37.7625 82.8208 38.4125 82.6958 38.9417 82.5417C39.5408 82.2637 40.0095 81.7652 40.25 81.15C40.7 80.0375 40.25 78.2458 38.8125 76.3042C37.375 74.3583 34.9333 72.1583 31.3625 69.9667C28.7375 68.3 27.2542 66.3417 26.5708 64.15C25.8833 61.925 25.975 59.6292 26.5083 57.2958C27.5292 52.8375 30.1458 48.5042 31.8167 45.7833C32.2625 45.5125 31.9708 46.3458 30.1167 49.8417C28.4667 52.9708 25.3667 60.2458 29.6083 65.9C29.7686 61.7746 30.6822 57.7133 32.3042 53.9167C34.6542 48.5917 39.5667 39.3167 39.9542 31.9667C40.1542 32.1167 40.8583 32.5292 41.1583 32.8083C42.0667 33.3625 42.7417 34.1958 43.6167 34.7458C44.4917 35.5833 45.6042 36.1417 47.2667 36.1417C47.4292 36.1542 47.5792 36.1667 47.725 36.1667C49.4417 36.1667 50.7667 35.6083 51.8792 35.05C53.0875 34.4917 54.0458 33.6583 54.9625 33.3833H54.9833C56.9292 32.8208 58.4625 31.7083 59.3333 30.4667H59.3375ZM68.4417 67.7917C68.5958 70.2917 69.8708 72.9792 72.1167 73.5292C74.5667 74.0875 78.0917 72.1417 79.5792 70.3417L80.4583 70.3C81.7708 70.2708 82.8625 70.3417 83.9875 71.4167L84 71.4292C84.8667 72.2583 85.2708 73.6375 85.6292 75.0792C85.9833 76.7458 86.2708 78.3292 87.3333 79.5208C89.3583 81.7167 90.0208 83.2958 89.9833 84.2708L89.9958 84.2417V84.3167L89.9833 84.2667C89.9208 85.3583 89.2125 85.9167 87.9083 86.7458C85.2833 88.4167 80.6333 89.7125 77.6708 93.2875C75.0958 96.3583 71.9625 98.0375 69.1875 98.25C66.4208 98.4708 64.0333 97.4167 62.6292 94.5083L62.6083 94.4958C61.7333 92.8292 62.1083 90.225 62.8417 87.4542C63.575 84.6708 64.625 81.8542 64.7708 79.55C64.925 76.575 65.0875 73.9875 65.5833 71.9917C66.0833 70.0542 66.8667 68.6708 68.2542 67.8917L68.4417 67.8V67.7917ZM23.3833 67.9958H23.425C23.6458 67.9958 23.8625 68.0167 24.0792 68.0542C25.6458 68.2833 27.0208 69.4417 28.3417 71.1875L32.1333 78.1208L32.1458 78.1333C33.1583 80.3542 35.2875 82.5667 37.1 84.9542C38.9083 87.4458 40.3083 89.6667 40.1375 91.4958V91.5208C39.9 94.6208 38.1375 96.3042 35.45 96.9125C32.7625 97.475 29.1167 96.9208 25.4708 94.9792C21.4375 92.7458 16.6458 93.025 13.5667 92.4708C12.0292 92.1958 11.025 91.6375 10.5542 90.8042C10.0958 89.9708 10.0833 88.2958 11.0667 85.6792V85.6625L11.075 85.65C11.5625 84.2583 11.2 82.5167 10.9625 80.9917C10.7333 79.3208 10.6167 78.0333 11.1417 77.075C11.8083 75.6833 12.7917 75.4083 14.0167 74.8542C15.2417 74.2917 16.6833 74.0125 17.8292 72.8958H17.8375V72.8875C18.9042 71.7708 19.6917 70.3833 20.6208 69.3958C21.4125 68.5583 22.2042 67.9958 23.3833 67.9958ZM53.2125 30.1875C51.4 31.025 49.275 32.4167 47.0125 32.4167C44.7542 32.4167 42.9708 31.3042 41.6792 30.475C41.0375 29.9167 40.5125 29.3583 40.125 29.0792C39.4417 28.5208 39.525 27.6917 39.8167 27.6917C40.2708 27.7583 40.3542 28.25 40.6458 28.525C41.0458 28.8 41.5417 29.3583 42.1458 29.9125C43.3625 30.7458 44.9792 31.8583 47.0083 31.8583C49.0292 31.8583 51.3958 30.7458 52.8333 29.9167C53.6458 29.3542 54.6875 28.525 55.5333 27.9708C56.1833 27.4042 56.1542 26.8583 56.6958 26.8583C57.2292 26.925 56.8375 27.4167 56.0833 28.2417C55.1591 28.9406 54.1995 29.5915 53.2083 30.1917L53.2125 30.1875ZM48.7042 23.5917V23.5C48.6792 23.4167 48.7583 23.325 48.825 23.2917C49.1333 23.1125 49.575 23.1792 49.9083 23.3083C50.1708 23.3083 50.575 23.5875 50.5333 23.8708C50.5083 24.075 50.1792 24.1458 49.9708 24.1458C49.7417 24.1458 49.5875 23.9667 49.3833 23.8625C49.1667 23.7875 48.775 23.8292 48.7042 23.5917ZM46.4083 23.5917C46.325 23.8333 45.9375 23.7958 45.7167 23.8667C45.5208 23.9708 45.3583 24.15 45.1333 24.15C44.925 24.15 44.5917 24.0667 44.5667 23.8667C44.525 23.5917 44.9333 23.3125 45.1917 23.3125C45.525 23.1833 45.9583 23.1167 46.2708 23.2917C46.35 23.3292 46.4208 23.4167 46.3958 23.5V23.5833H46.4083V23.5917Z" fill="#192F6D"/>
</svg>
