<svg width="100" height="100" viewBox="0 0 100 100" fill="none" xmlns="http://www.w3.org/2000/svg">
<path d="M93.75 31.25H6.25C2.79824 31.25 0 28.4518 0 25V12.5C0 9.04824 2.79824 6.25 6.25 6.25H93.75C97.2018 6.25 100 9.04824 100 12.5V25C100 28.4518 97.2018 31.25 93.75 31.25ZM84.375 14.0625C81.7861 14.0625 79.6875 16.1611 79.6875 18.75C79.6875 21.3389 81.7861 23.4375 84.375 23.4375C86.9639 23.4375 89.0625 21.3389 89.0625 18.75C89.0625 16.1611 86.9639 14.0625 84.375 14.0625ZM71.875 14.0625C69.2861 14.0625 67.1875 16.1611 67.1875 18.75C67.1875 21.3389 69.2861 23.4375 71.875 23.4375C74.4639 23.4375 76.5625 21.3389 76.5625 18.75C76.5625 16.1611 74.4639 14.0625 71.875 14.0625ZM93.75 62.5H6.25C2.79824 62.5 0 59.7018 0 56.25V43.75C0 40.2982 2.79824 37.5 6.25 37.5H93.75C97.2018 37.5 100 40.2982 100 43.75V56.25C100 59.7018 97.2018 62.5 93.75 62.5ZM84.375 45.3125C81.7861 45.3125 79.6875 47.4111 79.6875 50C79.6875 52.5889 81.7861 54.6875 84.375 54.6875C86.9639 54.6875 89.0625 52.5889 89.0625 50C89.0625 47.4111 86.9639 45.3125 84.375 45.3125ZM71.875 45.3125C69.2861 45.3125 67.1875 47.4111 67.1875 50C67.1875 52.5889 69.2861 54.6875 71.875 54.6875C74.4639 54.6875 76.5625 52.5889 76.5625 50C76.5625 47.4111 74.4639 45.3125 71.875 45.3125ZM93.75 93.75H6.25C2.79824 93.75 0 90.9518 0 87.5V75C0 71.5482 2.79824 68.75 6.25 68.75H93.75C97.2018 68.75 100 71.5482 100 75V87.5C100 90.9518 97.2018 93.75 93.75 93.75ZM84.375 76.5625C81.7861 76.5625 79.6875 78.6611 79.6875 81.25C79.6875 83.8389 81.7861 85.9375 84.375 85.9375C86.9639 85.9375 89.0625 83.8389 89.0625 81.25C89.0625 78.6611 86.9639 76.5625 84.375 76.5625ZM71.875 76.5625C69.2861 76.5625 67.1875 78.6611 67.1875 81.25C67.1875 83.8389 69.2861 85.9375 71.875 85.9375C74.4639 85.9375 76.5625 83.8389 76.5625 81.25C76.5625 78.6611 74.4639 76.5625 71.875 76.5625Z" fill="#192F6D"/>
</svg>
