<svg width="100" height="100" viewBox="0 0 100 100" fill="none" xmlns="http://www.w3.org/2000/svg">
<path fill-rule="evenodd" clip-rule="evenodd" d="M88.89 41.11C67.41 19.63 32.59 19.63 11.11 41.11C10.167 42.0208 8.90395 42.5247 7.59297 42.5133C6.28198 42.502 5.02792 41.9761 4.10088 41.0491C3.17384 40.122 2.64799 38.868 2.6366 37.557C2.62521 36.246 3.12918 34.983 4.03997 34.04C29.42 8.65497 70.58 8.65497 95.96 34.04C96.8708 34.983 97.3747 36.246 97.3633 37.557C97.3519 38.868 96.8261 40.122 95.8991 41.0491C94.972 41.9761 93.718 42.502 92.407 42.5133C91.096 42.5247 89.833 42.0208 88.89 41.11ZM74.75 55.25C71.4999 51.9995 67.6413 49.4211 63.3947 47.662C59.1481 45.9029 54.5965 44.9974 50 44.9974C45.4034 44.9974 40.8519 45.9029 36.6052 47.662C32.3586 49.4211 28.5001 51.9995 25.25 55.25C24.307 56.1608 23.0439 56.6647 21.733 56.6533C20.422 56.642 19.1679 56.1161 18.2409 55.1891C17.3138 54.262 16.788 53.008 16.7766 51.697C16.7652 50.386 17.2692 49.123 18.18 48.18C22.3586 44.0013 27.3194 40.6866 32.7791 38.4251C38.2388 36.1636 44.0904 34.9996 50 34.9996C55.9095 34.9996 61.7612 36.1636 67.2209 38.4251C72.6805 40.6866 77.6413 44.0013 81.82 48.18C82.7308 49.123 83.2347 50.386 83.2233 51.697C83.212 53.008 82.6861 54.262 81.7591 55.1891C80.832 56.1161 79.578 56.642 78.267 56.6533C76.956 56.6647 75.693 56.1608 74.75 55.25ZM60.6 69.4C57.7871 66.5879 53.9724 65.0082 49.995 65.0082C46.0175 65.0082 42.2029 66.5879 39.39 69.4C38.4518 70.3382 37.1793 70.8653 35.8525 70.8653C34.5257 70.8653 33.2532 70.3382 32.315 69.4C31.3768 68.4618 30.8497 67.1893 30.8497 65.8625C30.8497 64.5357 31.3768 63.2632 32.315 62.325C34.6365 60.0028 37.3928 58.1607 40.4264 56.904C43.4599 55.6472 46.7114 55.0003 49.995 55.0003C53.2786 55.0003 56.53 55.6472 59.5636 56.904C62.5971 58.1607 65.3534 60.0028 67.675 62.325C68.6132 63.2632 69.1403 64.5357 69.1403 65.8625C69.1403 67.1893 68.6132 68.4618 67.675 69.4C66.7368 70.3382 65.4643 70.8653 64.1375 70.8653C62.8107 70.8653 61.5382 70.3382 60.6 69.4ZM45 80C45 78.6739 45.5268 77.4021 46.4644 76.4644C47.4021 75.5268 48.6739 75 50 75H50.05C51.3761 75 52.6478 75.5268 53.5855 76.4644C54.5232 77.4021 55.05 78.6739 55.05 80C55.05 81.3261 54.5232 82.5978 53.5855 83.5355C52.6478 84.4732 51.3761 85 50.05 85H50C48.6739 85 47.4021 84.4732 46.4644 83.5355C45.5268 82.5978 45 81.3261 45 80Z" fill="#192F6D"/>
</svg>
