<svg width="98" height="98" viewBox="0 0 98 98" fill="none" xmlns="http://www.w3.org/2000/svg">
<path d="M49 0.5625C22.248 0.5625 0.5625 22.248 0.5625 49C0.5625 75.752 22.248 97.4375 49 97.4375C75.752 97.4375 97.4375 75.752 97.4375 49C97.4375 22.248 75.752 0.5625 49 0.5625ZM65.0723 70.4063C64.3105 71.1641 63.5117 71.959 62.8633 72.6094C62.2793 73.1953 61.8672 73.918 61.6582 74.7012C61.3633 75.8066 61.125 76.9238 60.7266 77.9961L57.3301 87.1465C54.6426 87.7324 51.8613 88.0625 49 88.0625V82.7148C49.3301 80.25 47.5078 75.6328 44.5801 72.7051C43.4082 71.5332 42.75 69.9434 42.75 68.2852V62.0332C42.75 59.7598 41.5254 57.6699 39.5352 56.5703C36.7285 55.0176 32.7363 52.8477 30.002 51.4707C27.7598 50.3418 25.6855 48.9043 23.8203 47.2227L23.6641 47.082C22.3302 45.878 21.1459 44.518 20.1367 43.0313C18.3047 40.3418 15.3203 35.918 13.3809 33.043C17.3789 24.1563 24.584 17.0195 33.5371 13.1426L38.2266 15.4883C40.3047 16.5273 42.75 15.0176 42.75 12.6934V10.4863C44.3105 10.2344 45.8984 10.0742 47.5137 10.0137L53.041 15.541C54.2617 16.7617 54.2617 18.7402 53.041 19.9609L52.125 20.875L50.1055 22.8945C49.4961 23.5039 49.4961 24.4941 50.1055 25.1035L51.0215 26.0195C51.6309 26.6289 51.6309 27.6191 51.0215 28.2285L49.459 29.791C49.1656 30.0838 48.768 30.2482 48.3535 30.248H46.5977C46.1914 30.248 45.8008 30.4062 45.5078 30.6914L43.5703 32.5762C43.3328 32.8074 43.1749 33.1082 43.1195 33.435C43.064 33.7619 43.1138 34.0979 43.2617 34.3945L46.3066 40.4863C46.8262 41.5254 46.0703 42.748 44.9102 42.748H43.8086C43.4316 42.748 43.0684 42.6113 42.7852 42.3652L40.9727 40.791C40.5625 40.4352 40.0668 40.1923 39.5343 40.0861C39.0018 39.9799 38.4508 40.0142 37.9355 40.1855L31.8477 42.2148C31.3829 42.3698 30.9786 42.6671 30.6922 43.0647C30.4058 43.4622 30.2518 43.9397 30.252 44.4297C30.252 45.3145 30.752 46.1211 31.543 46.5176L33.707 47.5996C35.5449 48.5195 37.5723 48.998 39.627 48.998C41.6816 48.998 44.0391 54.3281 45.877 55.248H58.9141C60.5723 55.248 62.1602 55.9062 63.334 57.0781L66.0078 59.752C67.1248 60.8694 67.7522 62.3848 67.752 63.9648C67.7516 65.1621 67.5146 66.3475 67.0548 67.4529C66.5949 68.5583 65.9212 69.562 65.0723 70.4063V70.4063ZM82.0078 52.5645C80.877 52.2812 79.8906 51.5879 79.2441 50.6172L75.7324 45.3496C75.2186 44.58 74.9443 43.6754 74.9443 42.75C74.9443 41.8246 75.2186 40.92 75.7324 40.1504L79.5586 34.4121C80.0117 33.7344 80.6328 33.1836 81.3633 32.8203L83.8984 31.5527C86.5391 36.8105 88.0625 42.7246 88.0625 49C88.0625 50.6934 87.918 52.3516 87.707 53.9883L82.0078 52.5645Z" fill="#192F6D"/>
</svg>
